<svg width="77" height="68" viewBox="0 0 77 68" fill="none" xmlns="http://www.w3.org/2000/svg">
<path d="M60 0H17L0 33L17 66H60L76.5 33L60 0Z" fill="#51B951"/>
<path d="M60 0H17L38 36L60 0Z" fill="url(#paint0_linear_34_307)"/>
<path d="M38 36L0 33L17 66L38 36Z" fill="url(#paint1_linear_34_307)"/>
<path d="M60 66L76.5 33L38 36L60 66Z" fill="url(#paint2_linear_34_307)"/>
<path d="M21 16V19.4688H24.4688V47.2188H21V50.6875H38.1328C43.6328 50.6875 47.9219 49.2109 51 46.2578C54.0938 43.3203 55.6406 39.2266 55.6406 33.9766C55.6406 28.5234 54.1406 24.1641 51.1406 20.8984C48.1562 17.6328 44.1641 16 39.1641 16H21ZM31.6875 19.75H35.6953C39.7891 19.75 42.8594 20.9375 44.9062 23.3125C46.9531 25.7031 47.9766 29.2734 47.9766 34.0234C47.9766 38.4297 46.9141 41.7266 44.7891 43.9141C42.6641 46.1172 39.4766 47.2188 35.2266 47.2188H31.6875V19.75Z" fill="white"/>
<defs>
<linearGradient id="paint0_linear_34_307" x1="38.5" y1="0" x2="38.5" y2="36" gradientUnits="userSpaceOnUse">
<stop stop-color="#49A349"/>
<stop offset="1" stop-color="#429142"/>
</linearGradient>
<linearGradient id="paint1_linear_34_307" x1="38" y1="36" x2="10" y2="51" gradientUnits="userSpaceOnUse">
<stop offset="0.0173917" stop-color="#49A349"/>
<stop offset="1" stop-color="#429042"/>
</linearGradient>
<linearGradient id="paint2_linear_34_307" x1="70.1202" y1="50.1939" x2="37.2578" y2="38.0004" gradientUnits="userSpaceOnUse">
<stop stop-color="#49A349"/>
<stop offset="1" stop-color="#429042"/>
</linearGradient>
</defs>
</svg>
